<?xml version="1.0" encoding="UTF-8"?>
<svg width="128" height="128" version="1.2" baseProfile="tiny-ps" viewBox="0 0 33.87 33.87" xml:space="preserve" xmlns="http://www.w3.org/2000/svg"><title>forger.ai</title><path d="m15.41 32.33-1.01 0.2017-2.559-0.06708v0.06734l0.2693 0.202-0.2693-0.06733v0.06733c0.9373 0.3616 2.012 0.8135 3.03 0.8497 0.6556 0.02332 0.7377-0.7795 0.5387-1.254z" fill="#761936"/><path d="m9.279 29.83c0.2257 0.9838 1.193 1.588 1.751 2.357l-0.202-0.1347c0.144 0.4206 0.881 0.5811 1.279 0.6733l-0.2693-0.202v-0.06734c1.118 0.07894 2.463 0.2053 3.569 0-0.1142-0.5887-0.6652-0.7903-1.077-1.157-0.4651-0.4143-0.768-0.9391-1.078-1.469h-0.06734l0.2693 0.5387c-0.7266-0.0312-2.036 0.0623-2.626-0.404z" fill="#ae1832"/><path d="m20.66 29.03c-0.1274 0.8658-0.5864 1.621-1.212 2.219-0.5853 0.5596-1.492 1.032-1.104 2.02 0.2556 0.6499 1.437 0.1781 1.912 0.06956 1.547-0.3533 3.726-1.665 3.838-3.433l-0.808-0.2693c-0.2112 0.6337-0.4601 1.428-0.9164 1.932-0.3309 0.3657-0.8002 0.1787-0.9605-0.2486-0.1595-0.4253 0.2612-0.7418 0.2922-1.142 0.02093-0.2699-0.2676-0.505-0.368-0.7433z" fill="#3b213d"/><path d="m26.25 28.02-2.535 3.03-1.033 1.279c1.3-0.2981 2.581-1.699 3.179-2.828 0.2114-0.3988 0.5671-1.026 0.3893-1.481z" fill="#e3282b"/><path d="m9.75 26.87c-0.2531 0.2201-1.019 0.4587-1.347 0.404v1.01h-0.4713l-0.2693 0.2693 0.06734-0.1347c-0.2479 0.2266 0.06142 0.6941 0.1858 0.9427 0.4445 0.8885 1.105 1.625 1.902 2.212 0.207 0.1524 0.7712 0.6564 1.01 0.4818l0.202 0.1347-1.751-2.357 1.549 0.1347c0.4234 0.5058 2.004 0.3912 2.626 0.404l-0.4773-1.186-0.802-0.6432-1.279-1.604-0.1347-0.06734h-0.06734l-0.06734 0.1347z" fill="#e3282b"/><path d="m21.2 25.32c-0.3685 0.9553-0.3064 1.838-0.4232 2.828-0.06853 0.5805-0.2174 1.223 0.5579 1.279 0.06668 0.2531 0.3579 0.4809 0.3407 0.7433-0.03007 0.4604-0.5019 0.7847-0.2348 1.275 0.2182 0.4007 0.6851 0.469 0.9778 0.1156 0.4161-0.5021 0.7337-1.299 0.8689-1.932l0.808 0.2693c-0.2263 1.138-1.182 1.724-1.818 2.626 1.123-0.791 1.768-2.046 2.604-3.097 0.4111-0.5172 0.9971-0.9612 1.302-1.549l0.4713-0.2693-0.4713 0.1347-1.212-1.279c-0.6676 0.4363-1.177 1.224-1.48 1.953-0.1368 0.3287-0.1936 1.018-0.4964 1.23-0.3047 0.2126-0.8463-0.2157-0.8603-0.5279-0.04015-0.8999 0.5123-1.69 0.7495-2.52-0.5022-0.17-1.321-0.2208-1.59-0.7611-0.08222-0.1649-0.0401-0.3487-0.0931-0.5182z" fill="#761936"/><path d="m10.09 23.91-0.202 0.2693c-1.06 0.03387-1.477 1.141-2.357 1.481l0.06734-0.6733h-0.06734l-0.1347 2.424 0.2693 1.145 0.2693-0.2693h0.4713v-1.01c0.2928 0.07788 1.161-0.1595 1.347-0.404l1.01 0.1347h0.06733l-0.5101-1.549z" fill="#f95d20"/><path d="m23.69 22.43c-0.7664 0.7506-1.665 1.387-2.18 2.357-0.1745 0.3287-0.4288 0.8149-0.1866 1.165 0.315 0.4546 1.066 0.5262 1.558 0.6535-0.3246 0.7911-0.7604 1.612-0.7598 2.491 1.9e-4 0.3355 0.5187 0.8072 0.8706 0.6005 0.314-0.1844 0.3834-0.9529 0.5248-1.274 0.3323-0.7541 0.8474-1.401 1.452-1.953l1.212 1.279c1.173-0.1177 2.175-1.846 2.424-2.895h-0.06734l-0.06734 0.202h-0.06734l0.06734-0.808-0.3367 0.1347-0.202-0.202-0.2693-0.6733-1.215 1.279-1.804 1.751-1.156 1.414c-0.01491-0.3212-0.2424-0.4614-0.5387-0.5387l-0.1347-0.202c0.3696-0.982 1.23-1.701 1.953-2.424 0.3437-0.3437 0.7826-0.6738 0.9427-1.145-0.3873-0.2228-0.6192-0.378-1.077-0.2693l-0.8753-0.606-0.2693 0.06734z" fill="#ae1832"/><path d="m12.98 29.03-0.202-3.165h-0.06734v0.202c-0.6047-0.5931-0.6063-1.153-0.606-1.953 5.16e-4 -1.359 0.47-2.508 1.207-3.63 0.4899-0.7464 1.058-1.21 1.352-2.093-0.8295 0.07538-1.534 1.13-2.087 1.683-0.6424 0.6424-1.296 1.276-1.729 2.087-0.9207 1.726-0.6785 3.893 0.4603 5.454 0.4071 0.558 0.9986 1.199 1.673 1.414z" fill="#761936"/><path d="m27.8 17.11-1.915 3.232-2.394 2.491 0.2693-0.06734c0.1358 0.5443 0.5223 0.3386 0.8753 0.606l1.077 0.2693c-0.6925 1.335-2.531 2.015-2.895 3.569l0.1347 0.202c0.2546 0.1081 0.4986 0.2472 0.5387 0.5387l1.156-1.347 1.93-1.885 1.089-1.212 0.2693 0.6733 0.202 0.202 0.3367-0.1347-0.06734 0.808h0.06734c1.191-2.26 0.9762-5.742-0.404-7.878z" fill="#e3282b"/><path d="m14.26 16.7c-2.433 2.674-6.421 5.001-6.733 8.955 0.9072-0.1845 1.314-1.406 2.357-1.481l0.2693-0.2693v0.404h0.06734c0.04443-2.153 1.683-3.636 3.097-5.05 0.4683-0.4683 0.8666-1.04 1.347-1.481v-0.1347z" fill="#fd8e24"/><path d="m7.595 12.66v0.6733h-0.06734l-0.06734-0.202c-1.801 0.7735-1.355 2.953-2.02 4.511h0.2693c0.3336-0.44 0.6051-0.9274 1.212-0.9427 0.6286-1.084 1.332-2.801 0.6733-4.04z" fill="#f95d20"/><g fill="#e3282b"><path d="m25.71 12.13-0.06734 1.616-0.202-0.06734-0.2693 0.606c-0.5474 0.04213-0.8019 0.6722-1.1 1.066-0.6165 0.8142-1.535 2.05-2.469 2.503-0.1761 0.7738-1.29 0.8778-1.414 1.683l-0.404 0.06734c-0.0052 0.2801-0.1316 0.3778-0.404 0.404-0.3393 0.5891-0.8741 1.163-1.549 1.347-0.4663 1.014-2.194 1.61-2.424 2.693l-0.606 0.404c-0.04052 0.2571-0.2281 0.4323-0.2994 0.6794-0.2419 0.8376-0.09681 1.941 0.6361 2.485 0-2.232 1.271-3.655 3.03-4.915-0.05456 1.091-1.031 2.162-0.3367 3.299 0.128-0.4329 0.06641-0.9014 0.1795-1.347 0.1839-0.7241 0.655-1.391 1.129-1.953 0.9845-1.167 2.346-1.957 3.472-2.974 1.532-1.384 2.543-2.946 2.963-4.971 0.1552-0.7496 0.4428-1.891 0.1345-2.626z"/><path d="m16.01 11.86c-1.215 2.223-2.992 4.404-4.753 6.244-0.3431 0.3583-0.8296 0.5996-1.188 0.9624-0.8665 0.8778-1.6 1.893-2.513 2.732-0.4769 0.438-1.03 1.237-1.357 1.797-0.2077 0.3557-0.5518 0.9954-0.9618 1.126 0.0621 1.359 1.121 2.552 2.222 3.232l-0.06734-1.953h-0.06734v0.9427h-0.06734c-0.1165-0.6277-0.1744-1.549 0.3367-2.02l0.06734-0.3367-0.06734-0.2693c0.2767-0.04111 0.8704-1.515 0.8753-1.818l0.202-0.06734-0.06734-0.1347 1.045-1.058 1.379-1.366 0.7407-0.9427c0.5438-0.1526 1.396-1.005 1.549-1.549l0.202-0.202 0.5387-0.3367c-1e-6 -0.2085 0.3212-0.382 0.4713-0.5387 0.3243-0.3384 0.6123-0.7418 0.8529-1.145 0.6037-1.011 0.7631-2.14 0.7631-3.299z"/><path d="m7.259 11.72c0.1798 0.6243 0.463 1.155 0.5272 1.818 0.1176 1.216-0.4337 2.095-0.8639 3.165-0.6004-0.01922-0.9495 0.4523-1.212 0.9427l-0.202-0.06734c-0.1142 0.2601-0.5941 1.104-0.06027 1.211 0.4047 0.08104 1.156-1.105 1.475-1.371 0.5873-0.4899 1.26-0.959 1.616-1.658 0.7267-1.429 0.08105-3.254-1.28-4.04z"/></g><path d="m6.72 11.39-0.06734 0.202-0.2693-0.06734 0.1347 0.1347v0.06734l-0.3367-0.06734-0.5387 0.404 0.4713 2.559h0.06734c0.03316-0.7135 0.72-1.129 1.279-1.481l0.06734 0.202c0.2738-0.6525-0.2205-1.641-0.808-1.953z" fill="#fd8e24"/><path d="m4.745 10.87 0.04489 0.02244z" fill="#f2c468"/><path d="m4.633 10.85-0.1347 0.202z" fill="#f2d1aa"/><path d="m25.57 10.78c0.03633 0.8461 0.2359 1.664 0.2111 2.52-0.05239 1.805-0.762 3.706-1.916 5.089-1.727 2.069-5.152 3.411-5.859 6.195-0.1159 0.4564-0.2686 1.227-0.1517 1.683 0.2104 0.8204 0.8551 1.449 1.049 2.289 0.6231-0.3798 0.5847-2.276 0.6733-2.963h-0.06734l-0.1347 0.808h-0.06734l0.1347-1.616 0.202-0.06734 0.202-1.01h0.202l0.606-1.212 0.404-0.404h0.06734l-0.06734 0.202 0.2693-0.3367 0.202 0.06734-0.06734-0.202 1.953-1.549-0.06734-0.202 0.3367-0.2693 0.202 0.06733c0.02786-0.424 0.2571-0.6549 0.606-0.8753l0.06734-0.1347-0.06734-0.202 0.1347-0.3367c0.2353-0.05068 0.1794-0.1579 0.06734-0.3367 0.5778-0.1796 0.6943-0.9204 0.9427-1.405 0.09532-0.1859 0.3425-0.4631 0.1347-0.615v-0.1347c0.2568-0.2244 0.01546-0.5797 0.11-0.8763 0.2678-0.8403 0.2-1.563 0.1768-2.423-0.01713-0.6342 0.05342-1.292-0.4888-1.751z" fill="#ae1832"/><path d="m25.03 9.5 0.06734 1.077c-0.4505 0.07102-0.8467 0.473-1.167 0.7801-1.118 1.073-1.438 2.535-2.018 3.933-0.9122 2.201-2.838 3.819-4.559 5.375-1.539 1.392-2.963 2.717-2.963 4.927h0.06734l0.3367-1.145 0.606-0.404c0.3921-1.097 2.103-1.555 2.424-2.693 0.6641-0.1006 1.304-0.7394 1.549-1.347 0.2987 0.02874 0.415-0.1094 0.404-0.404l0.404-0.06734c0.2119-0.755 1.314-0.9026 1.414-1.683 0.3567-0.1058 0.6131-0.4565 0.8751-0.7121 0.5919-0.5774 1.138-1.133 1.641-1.791 0.2923-0.3821 0.5304-0.9844 1.052-1.066 0.04283-0.2897 0.1737-0.4873 0.4713-0.5387 0.0108-1.304 0.2397-3.111-0.606-4.242z" fill="#f95d20"/><path d="m17.43 8.423c0.06482 0.7936 0.3431 1.555 0.398 2.357 0.1318 1.925-0.3707 3.747-1.489 5.319-0.6377 0.8962-1.58 1.533-2.208 2.424l0.5387-0.1347c-0.9295 1.991-2.558 3.27-2.559 5.656-2.86e-4 0.7458-0.1006 1.547 0.606 2.02 0.3272-1.756 0.5782-3.193 1.829-4.579 0.6924-0.7666 1.499-1.45 2.278-2.126 0.4182-0.3631 1.029-0.8091 1.279-1.308l-0.9427 0.808 0.4713-1.01 0.5387-1.885c0.3147-0.2533 0.4669-1.019 0.4713-1.414 0.2829-0.05942 0.3243-0.4092 0.3348-0.6733 0.0281-0.7073 0.253-1.825 0.02619-2.491-0.09028-0.2652-0.05062-0.7418-0.361-0.808 0.1187-0.8272-0.7173-1.211-0.7407-1.953z" fill="#ae1832"/><path d="m22.27 8.423c0.5206 2.012 0.328 3.705 0.06733 5.723h0.06734c0.347-1.308 1.254-3.163 2.693-3.569 0.18-1.03-0.5172-2.195-1.243-2.888-0.2151-0.2052-0.5698-0.6583-0.9054-0.5954-0.5499 0.1031-0.3822 0.9703-0.6794 1.328z" fill="#fd8e24"/><path d="m16.28 6.605 0.1347 1.212h-0.2693l-0.202 0.202c-0.2554 0.9113-0.954 0.4837-1.535 0.8201-0.3949 0.2287-0.6507 0.7789-0.9368 1.121-0.4091 0.4893-0.8999 0.9479-1.32 1.416-0.1692 0.1886-0.3691 0.2307-0.451 0.481-0.3572 0.0583-0.4474 0.3315-0.4643 0.6733-0.04426 0.8985 0.04739 1.625-0.3344 2.491-1.256 2.849-4.867 4.047-5.598 7.205h0.202c2.184-2.82 5.042-5.039 7.107-7.946 0.6532-0.9196 1.401-1.799 1.996-2.76 0.3251-0.5249 0.488-1.242 1.065-1.549l0.5387 1.751h0.06734v-0.202h0.06734l0.3367 0.202v-0.202c0.2832 0 0.871 0.1322 0.9427-0.202h0.06734v0.202h0.06734c-0.05433-1.567-0.2406-3.778-1.481-4.915z" fill="#fd8e24"/><path d="m16.48 6.403c-0.02677 0.4042 0.4622 1.389 0.808 1.616l0.06734 0.202v0.404h0.06734v-0.202l0.4713 0.202 0.7407 1.953c0.2755 0.1738 0.2406 0.5149 0.3268 0.808 0.1942 0.6599-0.01071 1.511-0.02032 2.183-0.0052 0.3622 0.0424 0.7681-0.3065 0.9814-0.01247 0.4274-0.2 1.084-0.4713 1.414l-0.5387 1.885-0.4713 1.01c0.3984-0.2033 0.7027-0.5828 1.039-0.8751 2.193-1.909 3.192-4.8 2.818-7.676-0.09305-0.7163-0.2662-1.39-0.448-2.087-0.08002-0.3072-0.1174-0.6935-0.4463-0.808l0.1347 0.202-0.3367-0.3367-0.9427-0.1347-0.7599-0.2579z" fill="#e3282b"/><path d="m22.27 8.759h0.06733l-0.06733-0.3367 0.3073-0.9364 0.4334-0.4776c-0.1805-0.1557-0.3456-0.3289-0.5397-0.4685-0.128-0.09209-0.2637-0.1766-0.403-0.2504-0.3865-0.2049-0.8752-0.1894-0.6587 0.3822 0.27 0.7128 0.773 1.303 0.8607 2.087z" fill="#feb935"/><path d="m16.35 6.672h0.06734l-0.06734-0.202c0.5887-0.03949 1.271 0.1791 1.807 0.4155 0.2228 0.09838 0.5936 0.4152 0.8194 0.2579 0.2664 0.1847 0.6321 0.209 0.9427 0.1347l0.3367 0.3367c-0.06343-0.154-0.1052-0.179 0.06733-0.202v-0.06733l-1.01-2.289c-0.2885 0.06746-0.6399-0.05513-0.9427-0.06494-0.6785-0.02199-1.344-0.0065-2.02-0.00764-0.2321-3.816e-4 -0.9609-0.1496-1.015 0.2226-0.05224 0.3579 0.8051 1.154 1.015 1.466z" fill="#f95d20"/><path d="m14.8 4.921c-0.2363 2.707-2.841 4.018-5.117 4.579l0.07045 0.6431 0.9163 1.04 0.5619 1.01-0.06734 0.4713h0.06734c0.02973-0.3635 0.08945-0.6946 0.4713-0.808 0.3717-0.6836 1.182-1.198 1.718-1.779 0.3367-0.3648 0.5804-0.9097 0.989-1.201 0.5293-0.377 1.384 0.1143 1.535-0.858l0.202-0.202h0.2693c0.1485-1.176-0.6729-2.231-1.616-2.895z" fill="#feb935"/><path d="m15.07 3.507c-0.04395 1.024-0.3817 1.526 0.606 2.222-0.09586-0.1391-0.3719-0.3912-0.2746-0.5769 0.1483-0.2832 0.6999-0.1669 0.948-0.1655 0.9691 0.00567 1.964-0.1211 2.895 0.2037 0.01989-0.3332-0.1453-0.5915-0.3076-0.8753-0.2096-0.3663-0.4936-0.9663-0.9011-1.139-0.3593-0.1519-0.618 0.08385-0.9486 0.1683-0.6285 0.1605-1.372 0.2545-2.017 0.1623m3.03-0.404 0.06734 0.06733z" fill="#fd8e24"/><path d="m16.01 0.8812-0.06734 0.2693 0.202 0.06733v0.1347c-0.8194 0.2594-1.077 0.6574-1.077 1.481 1.3e-5 0.1981-0.07048 0.5857 0.1561 0.688 0.9224 0.4169 2.045-0.5954 2.941-0.284-0.3407-0.9165-1.206-1.622-1.885-2.289h-0.06734z" fill="#feb935"/><path d="m15.07 2.093 1.077-0.7407v-0.1347l-0.202-0.06733 0.06734-0.2693h0.06734v0.202l0.1347-0.1347h0.06734l0.404 0.404c-0.183-0.3549-1.438-1.516-1.815-0.9213-0.1904 0.3 0.1005 1.329 0.1991 1.662z" fill="#f2c468"/><path d="m12.87 24.99v3.367h0.06734c0-0.946 0.2969-2.499-0.06734-3.367z" fill="#f2d1aa"/><path d="m7.487 24.92c-0.2774 0.6266-0.3617 1.349-0.202 2.02h0.06734z" fill="#ae1832"/><path d="m5.669 12.27v-0.202l0.5387-0.404 0.3367 0.06734v-0.06734l-0.1347-0.1347 0.2693 0.06734 0.06734-0.2693c-0.5896-0.09071-1.243-0.6049-1.878-0.4301-0.6396 0.176 0.5415 1.241 0.8006 1.373z" fill="#feb935"/><path d="m5.534 22.23-0.1347-0.06734c-0.3344 0.6664-0.4925 1.982-0.06734 2.626h0.06734l1.967-2.692 2.626-2.867 2.733-2.687 2.602-3.268 0.8459-1.414c0 4.415-4.141 6.09-6.397 9.292 1.665-1.173 3.121-3.014 4.579-4.444l0.3367 0.9427v0.1347l-0.6796 0.7433-1.34 1.411c0.7024-0.4948 1.31-1.224 1.892-1.854 1.515-1.639 2.849-3.124 3.176-5.418 0.07589-0.5324 0.2037-1.16 0.0491-1.683h-0.06734l0.06734 0.5387h-0.06734v-0.202h-0.06734v0.202h-0.9427v0.202l-0.3367-0.202h-0.06734v0.202h-0.06734l-0.5386-1.751c-0.5133 0.1788-0.6752 0.7676-0.9085 1.212-0.3897 0.7425-0.9678 1.494-1.493 2.146-1.276 1.584-2.442 3.119-3.872 4.582-0.8846 0.9042-1.721 1.809-2.575 2.739-0.4444 0.4838-1.008 0.9936-1.319 1.577z" fill="#f95d20"/><path d="m10.83 9.258 0.04489 0.02244-0.04489-0.02244m11.6-0.02244 0.06734 0.06734-0.06734-0.06734m-12.73 0.8753v-0.606l0.9427-0.1347c-0.5349-0.2224-1.971 0.297-0.9427 0.7407z" fill="#f2c468"/><path d="m24.66 8.562c0.1817 0.507 0.5371 1.847 0.9427 2.155l-0.06734 0.3367h0.06734v-0.2693h0.06734c0.6836 1.295 0.5539 2.862 0.1921 4.239-0.08091 0.3081 0.1584 0.5241-0.05746 0.8107v0.1347c0.1234 0.2372-0.097 0.4551-0.1943 0.6794-0.2096 0.483-0.3749 1.099-0.883 1.341l-0.06734 0.3367-0.1347 0.3367 0.06734 0.202-0.06734 0.1347c-0.4002 0.1713-0.5932 0.4425-0.606 0.8753l-0.202-0.06733-0.3367 0.2693 0.06734 0.202c-0.6981 0.1528-1.35 1.133-1.953 1.549l0.06734 0.202-0.202-0.06734-0.2693 0.3367 0.06734-0.202h-0.06734l-0.404 0.404-0.606 1.212h-0.202l-0.202 1.01-0.202 0.06734-0.1347 1.616h0.06734c0.05703-1.248 0.8961-2.464 1.701-3.353 1.385-1.529 3.057-2.744 4.31-4.409 0.8506-1.131 1.242-2.697 1.323-4.088 0.03078-0.5288-0.09472-1.101 0.0057-1.616-0.251-0.3313-0.2279-0.999-0.3601-1.414-0.3239-1.017-0.881-2.278-1.727-2.963z" fill="#e3282b"/></svg>
